<?xml version="1.0" encoding="utf-8"?>
<!-- Generator: Adobe Illustrator 26.0.1, SVG Export Plug-In . SVG Version: 6.00 Build 0)  -->
<svg version="1.1" id="Layer_1" xmlns="http://www.w3.org/2000/svg" xmlns:xlink="http://www.w3.org/1999/xlink" x="0px" y="0px"
	 viewBox="0 0 865.7 576.4" style="enable-background:new 0 0 865.7 576.4;" xml:space="preserve">
<style type="text/css">
	.st0{fill:#FFB6B6;}
	.st1{fill:#0BD084;}
	.st2{fill:#2F2E41;}
	.st3{fill:#E6E6E6;}
	.st4{fill:#CCCCCC;}
	.st5{fill:#3F3D56;}
	.st6{fill:#E4E4E4;}
	.st7{fill:#FF0E00;}

	#line1{
            animation-duration: 1.6s;
			animation-timing-function: ease-in-out;
			animation-delay: 0;
			animation-iteration-count: infinite;
			animation-direction: alternate;
			animation-play-state: running;
			animation-name: yaha-waha;
	}
	#line2{
			animation-duration: 1.6s;
			animation-timing-function: ease-in-out;
			animation-delay: 1.5s;
			animation-iteration-count: infinite;
			animation-direction: alternate;
			animation-play-state: running;
			animation-name: yaha-waha;

	}
	@keyframes yaha-waha{
		to{
			transform: translateX(2rem);
		}
		from{
			transform: translateX(-1rem);
		}
	}
</style>
<path class="st0" d="M549.8,320.1c6.3-1.3,10.4-7.4,9.2-13.8c-0.1-0.7-0.3-1.3-0.6-2l31.5-27.1l-20.6-5.8l-26.7,26.7
	c-5.8,2.8-8.4,9.7-5.7,15.6C539.2,318.6,544.6,321.3,549.8,320.1L549.8,320.1z"/>
<path class="st1" d="M754.2,512.5l1.1-25.7c11.9-6.4,25.2-9.7,38.7-9.8c-18.6,15.2-16.3,44.5-28.9,65c-8.1,12.9-21.6,21.4-36.6,23.1
	l-15.6,9.5c-4.3-24.1,2.1-48.9,17.6-67.8c4.4-5.2,9.3-9.8,14.9-13.8C749.2,502.8,754.2,512.5,754.2,512.5z"/>
<polygon class="st0" points="714.1,561.4 700,561.4 693.2,507 714.1,507 "/>
<path class="st2" d="M717.7,575.1h-45.5v-0.6c0-9.8,7.9-17.7,17.7-17.7l0,0l8.3-6.3l15.5,6.3h4V575.1z"/>
<polygon class="st0" points="648.5,561.4 634.4,561.4 627.7,507 648.6,507 "/>
<path class="st2" d="M652.1,575.1h-45.5v-0.6c0-9.8,7.9-17.7,17.7-17.7l0,0l8.3-6.3l15.5,6.3h4V575.1z"/>
<path class="st2" d="M642.4,264l91.7,2.3c17.4,9.5,17.7,29.9,12,54.2c0,0,1.9,14.5-1.9,18.3c-3.9,3.9-5.8,3.9-3.9,10.6
	s-8.3,17.8-7,19s4.1,8,4.1,8l-9.6,54.9c0,0-6.7,95.4-8.7,97.3s-3.9,0-1.9,4.8s3.9,2.9,1.9,4.8c-1.7,1.8-3.3,3.8-4.8,5.8H691
	c0,0-1.8-9.6-1.8-10.6s-1.9-6.7-1.9-7.7s1.7-2.7,1.7-2.7c0.6-2,1-4,1.2-6c0-1.9,5.8-76.1,5.8-76.1l-11.6-96.3L656.5,439
	c0,0,0,82.8-1.9,84.8s-1.9,1-1,4.8s4.8,2.9,1.9,5.8s-3.9-1.9-2.9,2.9l1,4.8l-28.9,0.4c0,0-3.9-8.1-1.9-11s1.8-2.1-0.5-6.8
	s-3.3-5.7-2.4-6.7s1-6.1,1-6.1l4.8-92.2c0,0,1-97.3,1-100.2c0.1-1.5-0.2-3-0.8-4.3v-3.9l3.7-13.9L642.4,264z"/>
<path class="st3" d="M548.8,288.8l15.5,12.5l84.5-65.5l-5-114l0,0c-9.6,7.7-15.7,18.9-17,31.1l-14.5,64.4L548.8,288.8z"/>
<path class="st3" d="M628.8,292.8c29.9,3.8,57.5-7.8,83.5-16.5c11.8-3.9,23.6,0.2,34.5-6.5c-4.7-46.5-0.1-98.8,9.9-154.6
	c1.2-6.5-2.7-12.9-9-14.9L715.4,91l-9.9-11l-25.7,6.5l-9,16.2l-30.9,20.9c-3.7,2.5-5.6,6.9-4.8,11.3
	C644.3,187.5,642.2,241.3,628.8,292.8z"/>
<path class="st0" d="M724.2,307.2c5.7-3,8-10,5.1-15.8c-0.3-0.6-0.7-1.2-1.1-1.7l22.9-34.7h-21.4l-18.5,33
	c-4.9,4.3-5.4,11.7-1.2,16.6C713.6,308.7,719.5,309.8,724.2,307.2L724.2,307.2z"/>
<path class="st3" d="M717.8,274.8l14,18l49-73l-4.2-74.2c-1.1-19.2-12-36.5-28.8-45.8l0,0l1,114L717.8,274.8z"/>
<circle class="st0" cx="682.6" cy="44.5" r="31.3"/>
<path class="st2" d="M662.6,26.1c1.2,0,2.4,0.2,3.6,0.5c2.3,0.6,4.7,1,7,1.2c14.9,1.4,27,12.8,29.2,27.6c1.8-1.6,6-4.5,9.4-1.8l0,0
	c0.1,0,0.1,0.1,0.2,0c2.3-1.1,6.3-14.2,6.4-25.8c0.1-6.2-0.9-14-5.9-16.5l-0.3-0.1l-0.1-0.3c-0.3-1.4-4-3.7-10.5-5.6
	C689.9,2,672.4-4.6,662.5,5c-0.7,3.2-3.2,10.1-5.6,10.9c-2.7,0.9-5.1,1.6-5.4,4.9c-0.3,4.7-0.3,9.5,0.1,14.2
	c0.9-2.9,2.7-5.4,5.2-7.2C658.5,26.7,660.5,26.1,662.6,26.1z"/>
<path class="st4" d="M865.7,575.3c0,0.7-0.5,1.2-1.2,1.2l0,0H1.2c-0.7,0-1.2-0.5-1.2-1.2s0.5-1.2,1.2-1.2h863.3
	C865.1,574.1,865.7,574.6,865.7,575.3C865.7,575.2,865.7,575.3,865.7,575.3z"/>
<path class="st5" d="M122.6,267.5c-1.6,0-2.9,1.3-2.9,2.9v299c0,1.6,1.3,2.9,2.9,2.9h374.9c1.6,0,2.9-1.3,2.9-2.9v-251
	c0-1.6-1.3-2.9-2.9-2.9H282.4c-2.2,0-4.3-0.8-5.9-2.3l-48.4-44c-1.2-1.1-2.9-1.8-4.6-1.8L122.6,267.5L122.6,267.5z"/>
<path class="st6" d="M433.6,420.3L295.5,361c-2.5-1.1-5.4,0.1-6.4,2.6c-1.1,2.5,0.1,5.4,2.6,6.4l138.1,59.4c2.5,1.1,5.4-0.1,6.4-2.6
	C437.3,424.3,436.1,421.4,433.6,420.3L433.6,420.3z"/>
<path class="st6" d="M298.2,425.5l-80.9,18.2c-1.5,0.3-2.4,1.8-2.1,3.2c0.3,1.5,1.8,2.4,3.2,2.1l0,0l80.9-18.2
	c1.5-0.3,2.4-1.8,2.1-3.2C301.1,426.1,299.6,425.2,298.2,425.5L298.2,425.5L298.2,425.5z"/>
<path class="st6" d="M295.8,415.1l-80.9,18.2c-1.5,0.3-2.4,1.8-2,3.2c0.3,1.5,1.8,2.4,3.2,2l80.9-18.2c1.5-0.3,2.4-1.8,2.1-3.2
	C298.7,415.7,297.3,414.8,295.8,415.1L295.8,415.1L295.8,415.1z"/>
<path class="st6" d="M247.6,415l-35.1,7.9c-1.5,0.3-2.4,1.8-2,3.2c0.3,1.5,1.8,2.4,3.2,2l35.1-7.9c1.5-0.3,2.4-1.8,2.1-3.2
	C250.5,415.6,249.1,414.7,247.6,415L247.6,415z"/>
<path class="st6" d="M288.6,382.8l-81,18.2c-1.5,0.3-2.4,1.8-2,3.2c0.3,1.5,1.8,2.4,3.2,2l80.9-18.2c1.5-0.3,2.4-1.8,2.1-3.2
	C291.5,383.4,290,382.5,288.6,382.8L288.6,382.8L288.6,382.8z"/>
<path class="st6" d="M286.2,372.4l-80.9,18.2c-1.5,0.3-2.4,1.8-2.1,3.2s1.8,2.4,3.2,2.1l0,0l80.9-18.2c1.5-0.3,2.4-1.8,2.1-3.2
	C289.1,373,287.7,372.1,286.2,372.4L286.2,372.4L286.2,372.4z"/>
<path class="st6" d="M238,372.3l-35.1,7.9c-1.5,0.3-2.4,1.8-2,3.2c0.3,1.5,1.8,2.4,3.2,2l35.1-7.9c1.5-0.3,2.4-1.8,2.1-3.2
	C240.9,372.9,239.5,372,238,372.3L238,372.3z"/>
<path class="st5" d="M120.1,346c-1.6,0-2.9,1.3-2.9,2.9l0,0c0,0.1,0.1,222.8,0.1,222.8c0.2,1.5,1.4,2.6,2.9,2.6H523
	c1.5,0,2.7-1.1,2.9-2.6L551,349.2c0.1-0.8-0.2-1.6-0.7-2.3c-0.5-0.6-1.3-1-2.2-1L120.1,346L120.1,346z"/>
<path class="st1" d="M148.6,358.3c-8.5,0-15.4,6.9-15.5,15.4l0.5,172.6c-0.1,8.6,6.8,15.6,15.4,15.6h0.1h255.7
	c60.7,0,111.8-45.6,118.5-105.9l9.1-80.5c1-8.5-5.2-16.2-13.7-17.1c-0.6-0.1-1.2-0.1-1.7-0.1L148.6,358.3L148.6,358.3z M540.4,358.3
	v-1l0,0V358.3z"/>
<path class="st6" d="M260.2,487.7h-99c-2.1,0-3.9-1.7-3.9-3.9s1.7-3.9,3.9-3.9h99C265.2,479.9,265.3,487.7,260.2,487.7z"/>
<path class="st6" d="M393.7,507.8H161.2c-2.1,0-3.9-1.7-3.9-3.9s1.7-3.9,3.9-3.9h232.5C398.6,500.1,398.7,507.9,393.7,507.8z"/>
<g>
	<g>
		<path id="line2" d="M100.4,200.8v-42.6h6v42.6L100.4,200.8L100.4,200.8z M104.1,182.7V177h23.6v5.7H104.1z M124.6,200.8v-42.6h6
			v42.6L124.6,200.8L124.6,200.8z"/>
		<path id="line2" d="M150.3,201.2c-3.7,0-6.5-0.8-8.4-2.3s-2.8-3.9-2.8-7.1
			c0-3,0.9-5.3,2.6-6.8c1.7-1.5,4.3-2.2,7.7-2.2h8.6l0.4,4.8h-9c-1.5,0-2.7,0.3-3.5,1s-1.2,1.8-1.2,3.2c0,1.5,0.5,2.7,1.6,3.4
			c1,0.7,2.6,1.1,4.7,1.1c2.3,0,4-0.2,5.1-0.7s1.7-1.2,1.7-2.3l0.6,4.3c-0.5,0.8-1.2,1.5-2,2s-1.7,0.9-2.7,1.2
			C152.7,201.1,151.5,201.2,150.3,201.2z M157.7,200.8v-19.3c0-2-0.5-3.5-1.6-4.6s-2.6-1.7-4.5-1.7c-1.2,0-2.4,0.2-3.5,0.5
			c-1.2,0.4-2.2,0.9-3.1,1.6l-4.4-3c1.2-1.4,2.7-2.5,4.6-3.2c1.9-0.8,4-1.2,6.3-1.2c3.8,0,6.8,1,8.8,3c2.1,2,3.1,4.8,3.1,8.3v19.5
			L157.7,200.8L157.7,200.8z"/>
		<path id="line2" d="M182.9,192.1l7.4-21.7h6.2l-11.4,30.4h-4.5l-11.4-30.4
			h6.2L182.9,192.1z"/>
		<path id="line2" d="M214.9,201.2c-4.2,0-7.5-1.2-9.8-3.5
			c-2.3-2.4-3.5-5.7-3.5-10.1v-3.4c0-4.5,1.1-8,3.4-10.5c2.2-2.5,5.4-3.7,9.4-3.7c3.8,0,6.8,1.4,8.9,4.2c2.1,2.8,3.1,6.8,3.1,11.8v2
			h-20.5v-4.8h14.8c-0.2-2.5-0.8-4.4-1.9-5.8c-1.1-1.4-2.6-2.1-4.4-2.1c-2.2,0-4,0.7-5.2,2.2s-1.9,3.6-1.9,6.3v3.9
			c0,2.5,0.7,4.5,2,5.8s3.2,2,5.6,2c1.2,0,2.4-0.2,3.6-0.7c1.2-0.5,2.3-1.2,3.2-2.1l3.9,3.9c-1.5,1.4-3.2,2.6-5.1,3.4
			S216.8,201.2,214.9,201.2z"/>
	</g>
</g>
<g>
	<g>
		<path id="line2" class="st1" d="M264.1,186.8l12.5-28.1h5.6v42.6h-5.8v-31.9l0.3,1.9l-10.5,24.1H262l-10.5-23.5l0.3-2.5v31.9H246
			v-42.6h5.6L264.1,186.8z"/>
		<path id="line2" class="st1" d="M304.7,201.7c-4.2,0-7.5-1.2-9.8-3.5
			c-2.3-2.4-3.5-5.7-3.5-10.1v-3.4c0-4.5,1.1-8,3.4-10.5c2.2-2.5,5.4-3.7,9.4-3.7c3.8,0,6.8,1.4,8.9,4.2s3.1,6.8,3.1,11.8v2h-20.5
			v-4.8h14.8c-0.2-2.5-0.8-4.4-1.9-5.8c-1.1-1.4-2.6-2.1-4.4-2.1c-2.2,0-4,0.7-5.2,2.2s-1.9,3.6-1.9,6.3v3.9c0,2.5,0.7,4.5,2,5.8
			s3.2,2,5.6,2c1.2,0,2.4-0.2,3.6-0.7s2.3-1.2,3.2-2.1l3.9,3.9c-1.5,1.4-3.2,2.6-5.1,3.4S306.6,201.7,304.7,201.7z"/>
		<path id="line2" class="st1" d="M335.1,201.7c-2.7,0-5.1-0.4-7.3-1.2
			s-4.2-2-5.9-3.6l3.5-4.4c1.7,1.2,3.3,2.2,4.9,2.8s3.2,0.9,4.8,0.9c2.4,0,4.1-0.4,5.3-1.1c1.2-0.7,1.8-1.8,1.8-3.3
			c0-1.1-0.4-1.9-1.2-2.4s-1.8-0.8-3.1-0.9c-1.3-0.1-2.7-0.3-4.1-0.4c-1.2-0.1-2.5-0.2-3.7-0.5c-1.2-0.2-2.3-0.6-3.3-1.1
			s-1.8-1.3-2.4-2.4c-0.6-1.1-0.9-2.5-0.9-4.2c0-3.2,1-5.6,3-7.2c2-1.6,4.9-2.4,8.8-2.4c2.4,0,4.6,0.3,6.7,1s4,1.6,5.8,3l-3.6,4.4
			c-1.5-1-3-1.7-4.5-2.2s-2.9-0.7-4.3-0.7c-2,0-3.6,0.3-4.6,1s-1.5,1.7-1.5,3.1c0,0.9,0.4,1.6,1.1,2s1.6,0.7,2.8,0.8
			c1.2,0.1,2.4,0.2,3.7,0.3c1.3,0.1,2.6,0.2,3.9,0.4s2.5,0.6,3.6,1.2c1.1,0.6,2,1.5,2.6,2.6c0.7,1.2,1,2.7,1,4.7
			c0,3.3-1.1,5.7-3.2,7.3C342.6,200.9,339.4,201.7,335.1,201.7z"/>
		<path id="line2" class="st1" d="M366.2,201.7c-2.7,0-5.1-0.4-7.3-1.2
			s-4.2-2-5.9-3.6l3.5-4.4c1.7,1.2,3.3,2.2,4.9,2.8s3.2,0.9,4.8,0.9c2.4,0,4.1-0.4,5.3-1.1c1.2-0.7,1.8-1.8,1.8-3.3
			c0-1.1-0.4-1.9-1.2-2.4s-1.8-0.8-3.1-0.9c-1.3-0.1-2.7-0.3-4.1-0.4c-1.2-0.1-2.5-0.2-3.7-0.5c-1.2-0.2-2.3-0.6-3.3-1.1
			s-1.8-1.3-2.4-2.4c-0.6-1.1-0.9-2.5-0.9-4.2c0-3.2,1-5.6,3-7.2c2-1.6,4.9-2.4,8.8-2.4c2.4,0,4.6,0.3,6.7,1s4,1.6,5.8,3l-3.6,4.4
			c-1.5-1-3-1.7-4.5-2.2s-2.9-0.7-4.3-0.7c-2,0-3.6,0.3-4.6,1s-1.5,1.7-1.5,3.1c0,0.9,0.4,1.6,1.1,2s1.6,0.7,2.8,0.8
			c1.2,0.1,2.4,0.2,3.7,0.3c1.3,0.1,2.6,0.2,3.9,0.4s2.5,0.6,3.6,1.2c1.1,0.6,2,1.5,2.6,2.6c0.7,1.2,1,2.7,1,4.7
			c0,3.3-1.1,5.7-3.2,7.3C373.7,200.9,370.5,201.7,366.2,201.7z"/>
		<path id="line2" class="st1" d="M396.3,201.7c-3.7,0-6.5-0.8-8.4-2.3
			s-2.8-3.9-2.8-7.1c0-3,0.9-5.3,2.6-6.8s4.3-2.2,7.7-2.2h8.6l0.4,4.8h-9c-1.5,0-2.7,0.3-3.5,1s-1.2,1.8-1.2,3.2
			c0,1.5,0.5,2.7,1.6,3.4c1,0.7,2.6,1.1,4.7,1.1c2.3,0,4-0.2,5.1-0.7s1.7-1.2,1.7-2.3l0.6,4.3c-0.5,0.8-1.2,1.5-2,2
			s-1.7,0.9-2.7,1.2C398.7,201.5,397.6,201.7,396.3,201.7z M403.8,201.2V182c0-2-0.5-3.5-1.6-4.6s-2.6-1.7-4.5-1.7
			c-1.2,0-2.4,0.2-3.5,0.5c-1.2,0.4-2.2,0.9-3.1,1.6l-4.4-3c1.2-1.4,2.7-2.5,4.6-3.2c1.9-0.8,4-1.2,6.3-1.2c3.8,0,6.8,1,8.8,3
			c2.1,2,3.1,4.8,3.1,8.3v19.5L403.8,201.2L403.8,201.2z"/>
		<path id="line2" class="st1" d="M428.2,201.8c-3.4,0-6-1.1-7.8-3.2
			c-1.8-2.2-2.7-5.2-2.7-9.1v-6.7c0-3.9,0.9-7,2.7-9.2c1.8-2.2,4.3-3.2,7.5-3.2c1.8,0,3.4,0.5,4.9,1.4s2.7,2.3,3.6,4l-0.6,6.2
			c0-1.3-0.2-2.4-0.7-3.3c-0.5-0.9-1.1-1.6-2-2.1s-2-0.7-3.2-0.7c-2,0-3.5,0.6-4.6,1.8s-1.6,3-1.6,5.2v6.6c0,2.2,0.5,3.9,1.6,5.1
			s2.6,1.8,4.6,1.8c1.3,0,2.3-0.2,3.2-0.7c0.9-0.5,1.6-1.2,2-2.2s0.7-2.1,0.7-3.4l0.4,6.4c-0.5,1.4-1.5,2.6-2.8,3.7
			C432.1,201.2,430.3,201.8,428.2,201.8z M428.7,213.6c-2.3,0-4.3-0.4-6.1-1.3c-1.8-0.8-3.2-2-4.2-3.6l4-3.7
			c0.8,1.1,1.7,1.9,2.8,2.5s2.2,0.9,3.4,0.9c2.3,0,4.1-0.6,5.3-1.9c1.2-1.3,1.9-3,1.9-5.3v-30.4h6v29.5c0,4.2-1.1,7.5-3.4,9.8
			C436.1,212.4,432.9,213.6,428.7,213.6z"/>
		<path id="line2" class="st1" d="M463.3,201.7c-4.2,0-7.5-1.2-9.8-3.5
			c-2.3-2.4-3.5-5.7-3.5-10.1v-3.4c0-4.5,1.1-8,3.4-10.5c2.2-2.5,5.4-3.7,9.4-3.7c3.8,0,6.8,1.4,8.9,4.2s3.1,6.8,3.1,11.8v2h-20.5
			v-4.8h14.8c-0.2-2.5-0.8-4.4-1.9-5.8c-1.1-1.4-2.6-2.1-4.4-2.1c-2.2,0-4,0.7-5.2,2.2s-1.9,3.6-1.9,6.3v3.9c0,2.5,0.7,4.5,2,5.8
			s3.2,2,5.6,2c1.2,0,2.4-0.2,3.6-0.7s2.3-1.2,3.2-2.1l3.9,3.9c-1.5,1.4-3.2,2.6-5.1,3.4S465.2,201.7,463.3,201.7z"/>
		<path id="line2" class="st1" d="M499.5,201.2V195h6.3v6.3h-6.3V201.2z
			 M499.6,190.3v-31.7h6v31.7H499.6z"/>
	</g>
</g>
<g>
	<g>
		<path id="line1" d="M100.8,95l-13,25.3v17.3h-6v-17.3L68.9,95h6.7l9.3,19.2L94.2,95H100.8z"/>
		<path id="line1" d="M116.3,138c-4,0-7.1-1.2-9.3-3.5
			c-2.2-2.3-3.3-5.6-3.3-9.8v-5c0-4.2,1.1-7.4,3.3-9.7c2.2-2.3,5.3-3.4,9.3-3.4s7.1,1.1,9.3,3.4c2.2,2.3,3.3,5.5,3.3,9.7v5
			c0,4.2-1.1,7.4-3.3,9.7C123.3,136.9,120.3,138,116.3,138z M116.3,132.4c2.1,0,3.7-0.7,4.8-2c1.1-1.3,1.7-3.1,1.7-5.5v-5
			c0-2.4-0.6-4.2-1.7-5.5s-2.8-1.9-4.8-1.9c-2.1,0-3.7,0.6-4.8,1.9c-1.2,1.3-1.7,3.1-1.7,5.5v5c0,2.4,0.6,4.2,1.7,5.5
			S114.2,132.4,116.3,132.4z"/>
		<path id="line1" d="M143.3,107.2v18.5c0,2.1,0.5,3.8,1.6,4.9
			c1.1,1.2,2.6,1.7,4.6,1.7s3.5-0.5,4.6-1.6c1.1-1,1.6-2.5,1.6-4.4l0.4,6.4c-0.5,1.4-1.5,2.6-2.9,3.7c-1.4,1.1-3.2,1.6-5.4,1.6
			c-3.4,0-6-1.1-7.8-3.2c-1.8-2.2-2.7-5.2-2.7-9.1v-18.5C137.3,107.2,143.3,107.2,143.3,107.2z M155.6,137.6v-30.4h5.9v30.4H155.6z"
			/>
	</g>
</g>
<g>
	<g>
		<path id="line1" class="st7" d="M180.8,137.7V95.1h6v42.6H180.8z M184.9,137.7V132h9.6c3.1,0,5.6-0.8,7.3-2.4
			c1.7-1.6,2.6-3.9,2.6-6.9v-12.5c0-3-0.9-5.3-2.6-6.9c-1.7-1.6-4.2-2.4-7.3-2.4h-9.6v-5.7h9.5c5.2,0,9.1,1.3,12,4
			c2.8,2.7,4.2,6.4,4.2,11.3v12.1c0,3.2-0.6,6-1.9,8.2c-1.3,2.3-3.1,4-5.5,5.2s-5.4,1.8-8.8,1.8h-9.5V137.7z"/>
		<path id="line1" class="st7" d="M231.3,138.1c-4,0-7.1-1.2-9.3-3.5
			s-3.3-5.6-3.3-9.8v-5c0-4.2,1.1-7.4,3.3-9.7c2.2-2.3,5.3-3.4,9.3-3.4s7.1,1.1,9.3,3.4s3.3,5.5,3.3,9.7v5c0,4.2-1.1,7.4-3.3,9.7
			C238.4,137,235.3,138.1,231.3,138.1z M231.3,132.5c2.1,0,3.7-0.7,4.8-2s1.7-3.1,1.7-5.5v-5c0-2.4-0.6-4.2-1.7-5.5
			s-2.8-1.9-4.8-1.9c-2.1,0-3.7,0.6-4.8,1.9c-1.2,1.3-1.7,3.1-1.7,5.5v5c0,2.4,0.6,4.2,1.7,5.5C227.6,131.8,229.2,132.5,231.3,132.5
			z"/>
		<path id="line1" class="st7" d="M252.3,137.7v-30.4h6v30.4H252.3z
			 M270.8,137.7v-18.4c0-2.1-0.6-3.8-1.7-5s-2.7-1.8-4.7-1.8s-3.5,0.5-4.5,1.6c-1.1,1-1.6,2.5-1.6,4.4l-0.6-5.9
			c0.9-1.8,2.2-3.3,3.7-4.2c1.5-1,3.2-1.5,5-1.5c3.3,0,5.9,1.1,7.7,3.2c1.8,2.2,2.7,5.2,2.7,9.2v18.5L270.8,137.7L270.8,137.7z"/>
		<path id="line1" class="st7" d="M283.3,111.1v-16h6.3v9.5L283.3,111.1z"/>
		<path id="line1" class="st7" d="M294.2,112.7v-5.4h13.7v5.4H294.2z
			 M304.4,137.8c-2.5,0-4.3-0.7-5.4-2.1c-1.1-1.4-1.7-3.4-1.7-6V98.4h6v31.4c0,0.7,0.1,1.3,0.4,1.7s0.7,0.6,1.3,0.6h2.9v5.7H304.4z"
			/>
	</g>
</g>
<g>
	<g>
		<path id="line1" d="M329.5,137.6L345.2,95h5.1l15.7,42.6h-6.4l-11.8-34.4L336,137.6H329.5z M336.8,128.3v-5.7h22.4v5.7H336.8z"/>
		<path id="line1" d="M371.9,137.6v-30.4h6v30.4H371.9z M390.3,137.6v-18.4c0-2.1-0.6-3.8-1.7-5c-1.1-1.2-2.7-1.8-4.7-1.8c-2,0-3.5,0.5-4.5,1.6
			c-1.1,1-1.6,2.5-1.6,4.4l-0.6-5.9c0.9-1.8,2.2-3.3,3.7-4.2c1.5-1,3.2-1.5,5-1.5c3.3,0,5.9,1.1,7.7,3.2c1.8,2.2,2.7,5.2,2.7,9.2
			v18.5H390.3z"/>
		<path id="line1" d="M414.3,140.1l-12.1-32.9h6.1l9.3,26.4L414.3,140.1z M423,107.2h6.1l-12.9,37.5c-0.7,2.1-1.8,3.5-3.1,4.4
			c-1.4,0.8-3.2,1.2-5.6,1.2h-1.2v-5.7h1.2c1.1,0,2-0.2,2.7-0.7c0.7-0.4,1.2-1.2,1.7-2.3L423,107.2z"/>
	</g>
</g>
</svg>
