<?xml version="1.0" encoding="utf-8"?>
<!-- Generator: Adobe Illustrator 26.0.1, SVG Export Plug-In . SVG Version: 6.00 Build 0)  -->
<svg version="1.1" id="Layer_1" xmlns="http://www.w3.org/2000/svg" xmlns:xlink="http://www.w3.org/1999/xlink" x="0px" y="0px"
	 viewBox="0 0 16 16" style="enable-background:new 0 0 16 16;" xml:space="preserve">
<style type="text/css">
	.st0{fill:#9C9CA0;}
</style>
<g>
	<path class="st0" d="M4.1,13.9l-3.8-3.6c-0.2-0.2-0.2-0.5,0-0.7s0.5-0.2,0.7,0l3,2.9l7-8c0.2-0.2,0.5-0.2,0.7,0
		c0.2,0.2,0.2,0.5,0,0.7L4.1,13.9z"/>
</g>
<g>
	<path class="st0" d="M8.1,13.9l-2.3-2c-0.2-0.2-0.2-0.5,0-0.6c0.2-0.2,0.5-0.2,0.6,0l1.5,1.4l7.2-8.2c0.2-0.2,0.5-0.2,0.6,0
		c0.2,0.2,0.2,0.5,0,0.6L8.1,13.9z"/>
</g>
</svg>
